<svg width="16" height="16" viewBox="0 0 16 16" fill="none" xmlns="http://www.w3.org/2000/svg">
<g clip-path="url(#clip0_1_1265)">
<path d="M8 1.37609C10.1375 1.37609 10.3906 1.38504 11.2313 1.42086C12.0125 1.4537 12.4344 1.57907 12.7156 1.68354C13.0875 1.82085 13.3563 1.98801 13.6344 2.25368C13.9156 2.52233 14.0875 2.77605 14.2313 3.13127C14.3406 3.39992 14.4719 3.80588 14.5063 4.54914C14.5438 5.35509 14.5531 5.59688 14.5531 7.63563C14.5531 9.67737 14.5438 9.91916 14.5063 10.7221C14.4719 11.4684 14.3406 11.8713 14.2313 12.14C14.0875 12.4952 13.9125 12.7519 13.6344 13.0176C13.3531 13.2862 13.0875 13.4504 12.7156 13.5877C12.4344 13.6922 12.0094 13.8176 11.2313 13.8504C10.3875 13.8862 10.1344 13.8952 8 13.8952C5.8625 13.8952 5.60938 13.8862 4.76875 13.8504C3.9875 13.8176 3.56563 13.6922 3.28438 13.5877C2.9125 13.4504 2.64375 13.2833 2.36563 13.0176C2.08438 12.7489 1.9125 12.4952 1.76875 12.14C1.65938 11.8713 1.52813 11.4654 1.49375 10.7221C1.45625 9.91617 1.44688 9.67439 1.44688 7.63563C1.44688 5.59389 1.45625 5.35211 1.49375 4.54914C1.52813 3.80289 1.65938 3.39992 1.76875 3.13127C1.9125 2.77605 2.0875 2.51934 2.36563 2.25368C2.64688 1.98503 2.9125 1.82085 3.28438 1.68354C3.56563 1.57907 3.99063 1.4537 4.76875 1.42086C5.60938 1.38504 5.8625 1.37609 8 1.37609ZM8 0C5.82813 0 5.55625 0.008955 4.70313 0.044775C3.85313 0.080595 3.26875 0.211935 2.7625 0.39999C2.23438 0.597 1.7875 0.856695 1.34375 1.28355C0.896875 1.70742 0.625 2.13428 0.41875 2.63576C0.221875 3.12231 0.084375 3.67752 0.046875 4.48944C0.009375 5.30733 0 5.56703 0 7.6416C0 9.71618 0.009375 9.97587 0.046875 10.7908C0.084375 11.6027 0.221875 12.1609 0.41875 12.6445C0.625 13.1489 0.896875 13.5758 1.34375 13.9997C1.7875 14.4235 2.23438 14.6862 2.75938 14.8802C3.26875 15.0683 3.85 15.1996 4.7 15.2354C5.55313 15.2713 5.825 15.2802 7.99688 15.2802C10.1688 15.2802 10.4406 15.2713 11.2938 15.2354C12.1438 15.1996 12.7281 15.0683 13.2344 14.8802C13.7594 14.6862 14.2063 14.4235 14.65 13.9997C15.0938 13.5758 15.3688 13.1489 15.5719 12.6474C15.7688 12.1609 15.9063 11.6057 15.9438 10.7938C15.9813 9.97886 15.9906 9.71916 15.9906 7.64459C15.9906 5.57001 15.9813 5.31032 15.9438 4.49541C15.9063 3.68349 15.7688 3.1253 15.5719 2.64173C15.375 2.13428 15.1031 1.70742 14.6563 1.28355C14.2125 0.85968 13.7656 0.597 13.2406 0.402975C12.7313 0.21492 12.15 0.08358 11.3 0.04776C10.4438 0.008955 10.1719 0 8 0Z" fill="white"/>
<path d="M8 3.71631C5.73125 3.71631 3.89062 5.47447 3.89062 7.64158C3.89062 9.80869 5.73125 11.5669 8 11.5669C10.2688 11.5669 12.1094 9.80869 12.1094 7.64158C12.1094 5.47447 10.2688 3.71631 8 3.71631ZM8 10.1878C6.52813 10.1878 5.33437 9.04752 5.33437 7.64158C5.33437 6.23565 6.52813 5.09538 8 5.09538C9.47188 5.09538 10.6656 6.23565 10.6656 7.64158C10.6656 9.04752 9.47188 10.1878 8 10.1878Z" fill="white"/>
<path d="M13.2312 3.56111C13.2312 4.06856 12.8 4.47751 12.2719 4.47751C11.7406 4.47751 11.3125 4.06558 11.3125 3.56111C11.3125 3.05366 11.7438 2.64471 12.2719 2.64471C12.8 2.64471 13.2312 3.05664 13.2312 3.56111Z" fill="white"/>
</g>
<defs>
<clipPath id="clip0_1_1265">
<rect width="16" height="15.2832" fill="white"/>
</clipPath>
</defs>
</svg>
