<svg width="16" height="16" viewBox="0 0 16 16" fill="none" xmlns="http://www.w3.org/2000/svg">
<g clip-path="url(#clip0_1_1270)">
<path d="M14.8156 0H1.18125C0.528125 0 0 0.492525 0 1.10147V14.1788C0 14.7877 0.528125 15.2832 1.18125 15.2832H14.8156C15.4688 15.2832 16 14.7877 16 14.1817V1.10147C16 0.492525 15.4688 0 14.8156 0ZM4.74687 13.0236H2.37188V5.72822H4.74687V13.0236ZM3.55938 4.73421C2.79688 4.73421 2.18125 4.14617 2.18125 3.42081C2.18125 2.69546 2.79688 2.10741 3.55938 2.10741C4.31875 2.10741 4.93437 2.69546 4.93437 3.42081C4.93437 4.14318 4.31875 4.73421 3.55938 4.73421ZM13.6344 13.0236H11.2625V9.47738C11.2625 8.63262 11.2469 7.5431 10.0281 7.5431C8.79375 7.5431 8.60625 8.46546 8.60625 9.41768V13.0236H6.2375V5.72822H8.5125V6.72521H8.54375C8.85938 6.15209 9.63438 5.54613 10.7875 5.54613C13.1906 5.54613 13.6344 7.05654 13.6344 9.02067V13.0236Z" fill="white"/>
</g>
<defs>
<clipPath id="clip0_1_1270">
<rect width="16" height="15.2832" fill="white"/>
</clipPath>
</defs>
</svg>
