<svg width="16" height="16" viewBox="0 0 16 16" fill="none" xmlns="http://www.w3.org/2000/svg">
<g clip-path="url(#clip0_29700_365)">
<path d="M5.03344 14.5001C11.0697 14.5001 14.3722 9.49793 14.3722 5.16136C14.3722 5.02074 14.3691 4.87699 14.3628 4.73636C15.0052 4.27176 15.5597 3.69629 16 3.03699C15.4017 3.30319 14.7664 3.47704 14.1159 3.55261C14.8009 3.14206 15.3137 2.4971 15.5594 1.7373C14.915 2.11916 14.2104 2.38853 13.4756 2.53386C12.9806 2.00783 12.326 1.65953 11.6131 1.54282C10.9003 1.42611 10.1688 1.54749 9.53183 1.88819C8.89486 2.22888 8.38787 2.76993 8.08923 3.42766C7.7906 4.0854 7.71695 4.8232 7.87969 5.52699C6.575 5.46152 5.29862 5.12259 4.13332 4.53219C2.96802 3.94178 1.9398 3.11308 1.11531 2.0998C0.696266 2.82228 0.568038 3.67722 0.756687 4.49085C0.945337 5.30448 1.43671 6.01575 2.13094 6.48011C1.60975 6.46357 1.09998 6.32324 0.64375 6.07074V6.11136C0.643283 6.86956 0.905399 7.60451 1.38554 8.1913C1.86568 8.77809 2.53422 9.1805 3.2775 9.33011C2.7947 9.46221 2.28799 9.48145 1.79656 9.38636C2.0063 10.0384 2.41438 10.6087 2.96385 11.0177C3.51331 11.4266 4.17675 11.6539 4.86156 11.6676C3.69895 12.5809 2.26278 13.0762 0.784375 13.0739C0.522191 13.0735 0.260266 13.0574 0 13.0257C1.5019 13.9893 3.24902 14.501 5.03344 14.5001Z" fill="#232536"/>
</g>
<defs>
<clipPath id="clip0_29700_365">
<rect width="16" height="16" fill="white"/>
</clipPath>
</defs>
</svg>
