<svg width="16" height="16" viewBox="0 0 16 16" fill="none" xmlns="http://www.w3.org/2000/svg">
<path d="M5.03344 13.8504C11.0697 13.8504 14.3722 9.07234 14.3722 4.93006C14.3722 4.79573 14.3691 4.65842 14.3628 4.5241C15.0052 4.08031 15.5597 3.53062 16 2.90085C15.4017 3.15513 14.7664 3.3212 14.1159 3.39338C14.8009 3.00122 15.3137 2.38516 15.5594 1.65939C14.915 2.02415 14.2104 2.28145 13.4756 2.42027C12.9806 1.9178 12.326 1.58511 11.6131 1.47363C10.9003 1.36215 10.1688 1.47808 9.53183 1.80352C8.89486 2.12895 8.38787 2.64576 8.08923 3.27403C7.7906 3.9023 7.71695 4.60704 7.87969 5.2793C6.575 5.21676 5.29862 4.89302 4.13332 4.32907C2.96802 3.76512 1.9398 2.97354 1.11531 2.00565C0.696266 2.69577 0.568038 3.5124 0.756687 4.28958C0.945337 5.06676 1.43671 5.74617 2.13094 6.18973C1.60975 6.17392 1.09998 6.03989 0.64375 5.79869V5.8375C0.643283 6.56172 0.905399 7.26376 1.38554 7.82426C1.86568 8.38476 2.53422 8.76913 3.2775 8.91205C2.7947 9.03823 2.28799 9.05661 1.79656 8.96578C2.0063 9.58862 2.41438 10.1334 2.96385 10.524C3.51331 10.9147 4.17675 11.1317 4.86156 11.1448C3.69895 12.0172 2.26278 12.4903 0.784375 12.4881C0.522191 12.4877 0.260266 12.4723 0 12.4421C1.5019 13.3625 3.24902 13.8513 5.03344 13.8504Z" fill="white"/>
</svg>
